<?xml version="1.0" encoding="UTF-8" ?>
<!DOCTYPE svg PUBLIC "-//W3C//DTD SVG 1.1//EN" "http://www.w3.org/Graphics/SVG/1.1/DTD/svg11.dtd">
<svg width="800pt" height="252pt" viewBox="0 0 800 252" version="1.1" xmlns="http://www.w3.org/2000/svg">
<g id="#140F30ff">
<path fill="#140F30" opacity="1.00" d=" M 24.32 4.35 C 126.53 4.04 228.75 4.31 330.97 4.22 C 476.66 4.21 622.35 4.22 768.04 4.21 C 771.92 4.28 775.95 3.92 779.68 5.26 C 788.28 8.15 795.09 16.72 794.79 25.96 C 794.76 92.64 794.79 159.31 794.77 225.99 C 795.07 237.20 784.95 246.85 774.00 247.31 C 524.65 247.33 275.30 247.31 25.95 247.32 C 18.22 247.14 11.06 242.29 7.40 235.60 C 4.76 230.50 4.64 224.60 4.76 218.99 C 4.78 154.99 4.76 91.00 4.77 27.00 C 4.60 16.08 13.20 5.31 24.32 4.35 M 244.79 58.50 C 243.16 65.05 244.05 72.92 249.46 77.54 C 256.87 84.71 269.88 83.92 276.58 76.16 C 276.57 71.66 276.59 67.16 276.57 62.66 C 271.10 62.66 265.64 62.65 260.17 62.67 C 260.17 64.62 260.17 66.56 260.19 68.51 C 263.68 68.50 267.18 68.50 270.67 68.51 C 270.62 70.36 270.57 72.21 270.51 74.06 C 265.90 77.24 259.21 77.97 254.66 74.30 C 247.97 68.89 249.05 56.73 256.87 52.88 C 261.68 50.34 267.86 51.82 271.25 56.01 C 272.91 55.37 274.55 54.70 276.18 54.01 C 273.66 47.85 266.02 45.80 259.92 46.46 C 253.01 46.87 246.90 51.99 244.79 58.50 M 436.42 46.65 C 422.87 48.49 417.88 67.52 427.15 76.81 C 433.36 83.85 445.23 84.43 452.15 78.12 C 461.12 71.08 460.15 55.53 450.87 49.18 C 446.65 46.37 441.31 45.98 436.42 46.65 M 284.11 46.72 C 284.05 58.38 284.07 70.04 284.10 81.69 C 292.10 81.66 300.10 81.71 308.10 81.67 C 308.10 79.86 308.11 78.05 308.11 76.25 C 302.24 76.20 296.37 76.23 290.50 76.23 C 290.45 73.01 290.44 69.80 290.46 66.58 C 296.18 66.58 301.90 66.59 307.61 66.58 C 307.61 64.81 307.62 63.04 307.62 61.27 C 301.92 61.26 296.21 61.26 290.50 61.27 C 290.45 58.32 290.44 55.37 290.45 52.41 C 296.33 52.41 302.22 52.43 308.10 52.40 C 308.10 50.51 308.11 48.62 308.11 46.73 C 300.11 46.70 292.11 46.73 284.11 46.72 M 314.50 52.42 C 317.96 52.42 321.43 52.42 324.90 52.39 C 325.39 62.08 325.03 71.78 324.74 81.48 C 326.94 81.64 329.14 81.68 331.35 81.65 C 331.33 71.90 331.34 62.16 331.34 52.42 C 334.84 52.41 338.35 52.41 341.85 52.41 C 341.85 50.52 341.85 48.62 341.85 46.72 C 332.74 46.71 323.63 46.72 314.51 46.72 C 314.50 48.62 314.50 50.52 314.50 52.42 M 362.68 46.74 C 362.63 58.37 362.68 70.01 362.65 81.64 C 364.86 81.66 367.07 81.65 369.29 81.59 C 369.21 69.97 369.32 58.35 369.23 46.73 C 367.04 46.73 364.86 46.73 362.68 46.74 M 375.50 46.72 C 375.49 48.62 375.49 50.51 375.49 52.41 C 379.08 52.40 382.66 52.40 386.25 52.45 C 386.23 62.21 386.21 71.97 386.26 81.73 C 388.27 81.69 390.27 81.64 392.28 81.57 C 392.22 71.84 392.22 62.12 392.28 52.39 C 395.72 52.42 399.17 52.42 402.61 52.41 C 402.60 50.51 402.60 48.61 402.59 46.71 C 393.56 46.73 384.53 46.71 375.50 46.72 M 465.45 81.68 C 467.49 81.68 469.54 81.68 471.59 81.69 C 471.67 73.68 471.45 65.67 471.72 57.67 C 478.20 65.16 483.30 73.75 489.45 81.50 C 491.44 81.81 493.46 81.68 495.48 81.69 C 495.46 70.04 495.50 58.38 495.46 46.72 C 493.48 46.72 491.52 46.72 489.56 46.73 C 489.47 54.72 489.62 62.72 489.46 70.72 C 483.45 62.69 477.57 54.58 471.40 46.68 C 469.42 46.71 467.44 46.72 465.47 46.73 C 465.39 58.38 465.44 70.03 465.45 81.68 M 70.99 51.50 C 72.62 53.40 74.37 55.18 76.15 56.93 C 97.79 78.34 119.16 100.04 140.94 121.30 C 147.87 114.23 155.02 107.37 161.77 100.14 C 135.60 85.60 109.31 71.28 83.02 56.97 C 79.11 54.94 75.47 52.13 70.99 51.50 M 62.79 58.96 C 62.74 101.65 62.81 144.33 62.76 187.02 C 62.63 189.93 63.82 193.09 66.45 194.58 C 67.41 195.01 68.21 194.81 68.86 194.00 C 92.23 170.66 115.36 147.06 138.79 123.79 C 137.04 121.67 135.09 119.74 133.11 117.83 C 111.05 95.88 89.07 73.86 67.00 51.92 C 64.59 53.47 62.68 55.96 62.79 58.96 M 163.19 103.00 C 156.51 109.79 149.88 116.65 143.10 123.35 C 149.91 130.85 157.49 137.62 164.43 145.00 C 172.47 141.51 179.89 136.72 187.69 132.71 C 191.29 130.58 195.49 129.18 198.32 125.96 C 199.84 123.14 198.26 119.84 195.58 118.43 C 186.35 113.24 176.84 108.56 167.62 103.33 C 166.29 102.69 164.33 101.35 163.19 103.00 M 272.14 114.69 C 261.28 116.80 252.31 124.55 246.65 133.80 C 241.21 142.72 240.33 153.82 242.43 163.89 C 245.04 175.88 254.08 185.80 265.08 190.87 C 272.21 194.15 280.26 194.61 287.99 194.01 C 300.77 192.93 312.32 183.82 316.86 171.90 C 319.41 165.01 320.06 157.42 318.54 150.22 C 306.28 150.23 294.02 150.23 281.77 150.23 C 281.71 153.94 281.71 157.64 281.75 161.35 C 290.50 161.41 299.25 161.37 308.00 161.37 C 307.18 173.85 295.31 183.89 282.97 183.38 C 267.66 183.91 253.03 170.49 253.22 154.98 C 252.48 142.39 260.82 129.57 272.98 125.82 C 282.78 122.83 294.08 125.22 301.45 132.48 C 304.11 129.98 306.58 127.29 309.17 124.71 C 300.00 114.80 285.02 111.80 272.14 114.69 M 491.75 115.80 C 491.70 141.45 491.74 167.09 491.73 192.74 C 495.60 192.77 499.47 192.78 503.34 192.71 C 503.39 167.25 503.21 141.79 503.44 116.33 C 499.62 115.33 495.64 115.88 491.75 115.80 M 579.75 125.44 C 579.82 148.20 579.76 170.97 579.78 193.74 C 583.28 193.79 586.79 193.80 590.30 193.76 C 590.36 184.74 590.16 175.73 590.41 166.72 C 598.58 166.17 607.65 168.63 614.99 163.97 C 619.69 161.02 623.71 156.49 624.84 150.93 C 626.52 144.61 624.69 137.51 620.10 132.84 C 615.85 127.99 609.39 125.40 603.00 125.39 C 595.25 125.30 587.49 125.24 579.75 125.44 M 632.16 125.32 C 631.61 148.12 631.95 170.95 631.95 193.76 C 635.53 193.79 639.11 193.79 642.70 193.78 C 642.68 170.96 642.70 148.15 642.69 125.34 C 639.17 125.33 635.66 125.33 632.16 125.32 M 138.22 128.20 C 116.29 150.71 93.71 172.60 71.91 195.23 C 73.87 194.51 75.82 193.74 77.67 192.76 C 104.18 178.30 130.65 163.79 157.18 149.38 C 158.72 148.37 160.86 147.90 161.80 146.21 C 155.33 139.67 148.79 133.18 142.25 126.70 C 140.78 125.22 139.23 127.19 138.22 128.20 M 452.25 143.42 C 443.94 146.20 437.69 153.80 435.79 162.24 C 434.89 168.43 434.81 175.20 437.92 180.84 C 442.44 189.45 452.08 195.46 461.94 194.47 C 466.53 194.34 470.69 191.99 473.61 188.54 C 473.71 193.36 473.74 198.67 470.52 202.63 C 466.92 207.69 459.47 208.82 454.15 206.00 C 450.97 204.29 449.06 201.08 447.03 198.23 C 443.77 199.54 440.51 200.84 437.20 201.99 C 441.77 217.17 462.91 222.64 475.06 213.09 C 481.75 208.40 484.70 199.94 484.60 192.01 C 484.61 175.85 484.65 159.70 484.57 143.54 C 480.94 143.54 477.31 143.54 473.68 143.55 C 473.61 145.00 473.55 146.47 473.49 147.93 C 468.00 142.51 459.45 140.80 452.25 143.42 M 515.38 149.44 C 505.88 159.15 505.69 176.17 514.62 186.31 C 524.94 198.08 546.88 196.86 554.86 182.99 C 552.13 180.95 549.43 178.40 546.22 177.32 C 542.78 180.30 539.22 184.45 534.03 183.77 C 528.52 184.65 523.85 181.06 521.15 176.59 C 532.40 171.07 544.26 166.83 555.56 161.40 C 553.50 156.98 551.75 152.24 548.18 148.76 C 539.75 139.68 523.43 139.98 515.38 149.44 M 339.52 143.86 C 330.49 147.04 324.24 155.94 322.92 165.24 C 321.77 173.77 325.26 182.64 331.74 188.27 C 337.75 194.19 346.91 195.57 354.93 193.91 C 362.93 192.17 369.34 185.84 372.56 178.49 C 377.51 166.89 372.60 152.49 362.02 145.87 C 355.32 141.88 346.85 141.64 339.52 143.86 M 396.36 143.61 C 387.87 146.10 381.60 153.68 379.43 162.08 C 377.00 171.21 380.17 181.50 387.11 187.87 C 396.57 196.92 413.34 196.92 422.57 187.52 C 429.69 180.98 432.30 170.36 429.71 161.14 C 427.71 154.70 423.43 148.85 417.50 145.50 C 411.11 141.97 403.29 141.77 396.36 143.61 M 662.27 146.17 C 656.57 147.58 652.47 152.14 650.31 157.41 C 653.36 158.94 656.54 160.21 659.86 161.03 C 661.72 157.19 665.61 154.61 669.98 155.14 C 675.80 154.28 681.23 158.92 681.79 164.69 C 675.45 162.45 668.52 161.83 661.97 163.50 C 656.79 164.64 652.35 168.38 650.07 173.13 C 647.27 178.88 649.36 185.99 653.30 190.65 C 660.96 197.37 673.95 197.26 681.21 189.92 C 681.21 190.89 681.22 192.82 681.22 193.78 C 684.70 193.78 688.18 193.78 691.66 193.77 C 691.67 185.51 691.64 177.25 691.68 168.98 C 691.96 162.36 690.41 155.20 685.59 150.39 C 679.31 144.80 670.09 144.39 662.27 146.17 M 695.86 146.80 C 700.52 158.95 706.02 170.77 711.01 182.78 C 711.86 185.20 713.55 187.44 713.69 190.04 C 710.71 198.25 706.80 206.12 703.88 214.36 C 707.37 214.38 710.88 214.37 714.38 214.42 C 724.07 191.95 733.66 169.43 742.96 146.80 C 739.46 146.78 735.97 146.78 732.48 146.73 C 727.78 156.69 723.84 167.00 719.15 176.97 C 715.03 166.82 710.61 156.79 706.20 146.77 C 702.75 146.77 699.30 146.77 695.86 146.80 Z" />
<path fill="#140F30" opacity="1.00" d=" M 437.68 51.93 C 443.33 50.49 449.51 53.95 451.24 59.51 C 452.41 64.22 452.18 69.96 448.55 73.59 C 444.34 77.89 436.59 77.85 432.27 73.72 C 425.82 67.36 428.21 53.90 437.68 51.93 Z" />
<path fill="#140F30" opacity="1.00" d=" M 590.35 157.40 C 590.27 150.13 590.27 142.86 590.35 135.60 C 597.24 136.34 605.63 133.53 611.27 138.76 C 617.18 144.42 613.92 155.46 605.99 157.20 C 600.79 157.64 595.56 157.23 590.35 157.40 Z" />
<path fill="#140F30" opacity="1.00" d=" M 345.65 153.05 C 349.42 152.23 353.59 152.96 356.74 155.22 C 364.26 161.19 364.99 174.12 357.62 180.52 C 354.27 184.16 348.89 184.24 344.39 183.35 C 336.18 180.60 332.44 170.40 335.40 162.59 C 336.92 157.96 340.73 153.94 345.65 153.05 Z" />
<path fill="#140F30" opacity="1.00" d=" M 401.63 153.10 C 407.02 151.77 413.34 153.86 416.21 158.78 C 420.62 165.00 420.05 174.17 414.68 179.65 C 409.56 185.78 398.92 185.06 394.04 178.97 C 386.67 170.88 390.42 155.32 401.63 153.10 Z" />
<path fill="#140F30" opacity="1.00" d=" M 457.64 153.05 C 462.27 152.06 467.68 153.51 470.57 157.44 C 476.31 164.05 475.81 175.25 469.09 181.02 C 465.78 184.24 460.71 184.15 456.48 183.34 C 448.52 180.55 444.45 170.54 447.36 162.79 C 449.04 158.23 452.63 153.93 457.64 153.05 Z" />
<path fill="#140F30" opacity="1.00" d=" M 519.41 167.66 C 518.69 160.18 525.14 152.01 533.01 152.55 C 536.63 152.36 541.02 154.13 541.94 157.95 C 534.34 160.96 526.87 164.33 519.41 167.66 Z" />
<path fill="#140F30" opacity="1.00" d=" M 664.42 172.73 C 669.07 170.71 674.58 171.01 679.30 172.67 C 681.38 172.99 680.81 175.42 680.62 176.88 C 678.74 184.69 667.74 189.31 661.51 183.46 C 657.84 180.19 660.34 174.33 664.42 172.73 Z" />
</g>
<g id="#FF4655ff">
<path fill="#FF4655" opacity="1.00" d=" M 21.98 0.00 L 777.41 0.00 C 789.78 1.73 799.26 13.29 800.00 25.53 L 800.00 227.11 C 798.91 233.56 796.47 240.03 791.49 244.48 C 787.34 248.44 781.98 250.98 776.36 252.00 L 22.79 252.00 C 10.65 249.95 0.85 239.23 0.00 226.92 L 0.00 22.90 C 2.01 11.89 10.52 1.61 21.98 0.00 M 24.32 4.35 C 13.20 5.31 4.60 16.08 4.77 27.00 C 4.76 91.00 4.78 154.99 4.76 218.99 C 4.64 224.60 4.76 230.50 7.40 235.60 C 11.06 242.29 18.22 247.14 25.95 247.32 C 275.30 247.31 524.65 247.33 774.00 247.31 C 784.95 246.85 795.07 237.20 794.77 225.99 C 794.79 159.31 794.76 92.64 794.79 25.96 C 795.09 16.72 788.28 8.15 779.68 5.26 C 775.95 3.92 771.92 4.28 768.04 4.21 C 622.35 4.22 476.66 4.21 330.97 4.22 C 228.75 4.31 126.53 4.04 24.32 4.35 Z" />
<path fill="#FF4655" opacity="1.00" d=" M 244.79 58.50 C 246.90 51.99 253.01 46.87 259.92 46.46 C 266.02 45.80 273.66 47.85 276.18 54.01 C 274.55 54.70 272.91 55.37 271.25 56.01 C 267.86 51.82 261.68 50.34 256.87 52.88 C 249.05 56.73 247.97 68.89 254.66 74.30 C 259.21 77.97 265.90 77.24 270.51 74.06 C 270.57 72.21 270.62 70.36 270.67 68.51 C 267.18 68.50 263.68 68.50 260.19 68.51 C 260.17 66.56 260.17 64.62 260.17 62.67 C 265.64 62.65 271.10 62.66 276.57 62.66 C 276.59 67.16 276.57 71.66 276.58 76.16 C 269.88 83.92 256.87 84.71 249.46 77.54 C 244.05 72.92 243.16 65.05 244.79 58.50 Z" />
<path fill="#FF4655" opacity="1.00" d=" M 436.42 46.65 C 441.31 45.98 446.65 46.37 450.87 49.18 C 460.15 55.53 461.12 71.08 452.15 78.12 C 445.23 84.43 433.36 83.85 427.15 76.81 C 417.88 67.52 422.87 48.49 436.42 46.65 M 437.68 51.93 C 428.21 53.90 425.82 67.36 432.27 73.72 C 436.59 77.85 444.34 77.89 448.55 73.59 C 452.18 69.96 452.41 64.22 451.24 59.51 C 449.51 53.95 443.33 50.49 437.68 51.93 Z" />
<path fill="#FF4655" opacity="1.00" d=" M 284.11 46.72 C 292.11 46.73 300.11 46.70 308.11 46.73 C 308.11 48.62 308.10 50.51 308.10 52.40 C 302.22 52.43 296.33 52.41 290.45 52.41 C 290.44 55.37 290.45 58.32 290.50 61.27 C 296.21 61.26 301.92 61.26 307.62 61.27 C 307.62 63.04 307.61 64.81 307.61 66.58 C 301.90 66.59 296.18 66.58 290.46 66.58 C 290.44 69.80 290.45 73.01 290.50 76.23 C 296.37 76.23 302.24 76.20 308.11 76.25 C 308.11 78.05 308.10 79.86 308.10 81.67 C 300.10 81.71 292.10 81.66 284.10 81.69 C 284.07 70.04 284.05 58.38 284.11 46.72 Z" />
<path fill="#FF4655" opacity="1.00" d=" M 314.50 52.42 C 314.50 50.52 314.50 48.62 314.51 46.72 C 323.63 46.72 332.74 46.71 341.85 46.72 C 341.85 48.62 341.85 50.52 341.85 52.41 C 338.35 52.41 334.84 52.41 331.34 52.42 C 331.34 62.16 331.33 71.90 331.35 81.65 C 329.14 81.68 326.94 81.64 324.74 81.48 C 325.03 71.78 325.39 62.08 324.90 52.39 C 321.43 52.42 317.96 52.42 314.50 52.42 Z" />
<path fill="#FF4655" opacity="1.00" d=" M 362.68 46.74 C 364.86 46.73 367.04 46.73 369.23 46.73 C 369.32 58.35 369.21 69.97 369.29 81.59 C 367.07 81.65 364.86 81.66 362.65 81.64 C 362.68 70.01 362.63 58.37 362.68 46.74 Z" />
<path fill="#FF4655" opacity="1.00" d=" M 375.50 46.72 C 384.53 46.71 393.56 46.73 402.59 46.71 C 402.60 48.61 402.60 50.51 402.61 52.41 C 399.17 52.42 395.72 52.42 392.28 52.39 C 392.22 62.12 392.22 71.84 392.28 81.57 C 390.27 81.64 388.27 81.69 386.26 81.73 C 386.21 71.97 386.23 62.21 386.25 52.45 C 382.66 52.40 379.08 52.40 375.49 52.41 C 375.49 50.51 375.49 48.62 375.50 46.72 Z" />
<path fill="#FF4655" opacity="1.00" d=" M 465.45 81.68 C 465.44 70.03 465.39 58.38 465.47 46.73 C 467.44 46.72 469.42 46.71 471.40 46.68 C 477.57 54.58 483.45 62.69 489.46 70.72 C 489.62 62.72 489.47 54.72 489.56 46.73 C 491.52 46.72 493.48 46.72 495.46 46.72 C 495.50 58.38 495.46 70.04 495.48 81.69 C 493.46 81.68 491.44 81.81 489.45 81.50 C 483.30 73.75 478.20 65.16 471.72 57.67 C 471.45 65.67 471.67 73.68 471.59 81.69 C 469.54 81.68 467.49 81.68 465.45 81.68 Z" />
<path fill="#FF4655" opacity="1.00" d=" M 70.99 51.50 C 75.47 52.13 79.11 54.94 83.02 56.97 C 109.31 71.28 135.60 85.60 161.77 100.14 C 155.02 107.37 147.87 114.23 140.94 121.30 C 119.16 100.04 97.79 78.34 76.15 56.93 C 74.37 55.18 72.62 53.40 70.99 51.50 Z" />
<path fill="#FF4655" opacity="1.00" d=" M 62.79 58.96 C 62.68 55.96 64.59 53.47 67.00 51.92 C 89.07 73.86 111.05 95.88 133.11 117.83 C 135.09 119.74 137.04 121.67 138.79 123.79 C 115.36 147.06 92.23 170.66 68.86 194.00 C 68.21 194.81 67.41 195.01 66.45 194.58 C 63.82 193.09 62.63 189.93 62.76 187.02 C 62.81 144.33 62.74 101.65 62.79 58.96 Z" />
<path fill="#FF4655" opacity="1.00" d=" M 163.19 103.00 C 164.33 101.35 166.29 102.69 167.62 103.33 C 176.84 108.56 186.35 113.24 195.58 118.43 C 198.26 119.84 199.84 123.14 198.32 125.96 C 195.49 129.18 191.29 130.58 187.69 132.71 C 179.89 136.72 172.47 141.51 164.43 145.00 C 157.49 137.62 149.91 130.85 143.10 123.35 C 149.88 116.65 156.51 109.79 163.19 103.00 Z" />
<path fill="#FF4655" opacity="1.00" d=" M 272.14 114.69 C 285.02 111.80 300.00 114.80 309.17 124.71 C 306.58 127.29 304.11 129.98 301.45 132.48 C 294.08 125.22 282.78 122.83 272.98 125.82 C 260.82 129.57 252.48 142.39 253.22 154.98 C 253.03 170.49 267.66 183.91 282.97 183.38 C 295.31 183.89 307.18 173.85 308.00 161.37 C 299.25 161.37 290.50 161.41 281.75 161.35 C 281.71 157.64 281.71 153.94 281.77 150.23 C 294.02 150.23 306.28 150.23 318.54 150.22 C 320.06 157.42 319.41 165.01 316.86 171.90 C 312.32 183.82 300.77 192.93 287.99 194.01 C 280.26 194.61 272.21 194.15 265.08 190.87 C 254.08 185.80 245.04 175.88 242.43 163.89 C 240.33 153.82 241.21 142.72 246.65 133.80 C 252.31 124.55 261.28 116.80 272.14 114.69 Z" />
<path fill="#FF4655" opacity="1.00" d=" M 491.75 115.80 C 495.64 115.88 499.62 115.33 503.44 116.33 C 503.21 141.79 503.39 167.25 503.34 192.71 C 499.47 192.78 495.60 192.77 491.73 192.74 C 491.74 167.09 491.70 141.45 491.75 115.80 Z" />
<path fill="#FF4655" opacity="1.00" d=" M 579.75 125.44 C 587.49 125.24 595.25 125.30 603.00 125.39 C 609.39 125.40 615.85 127.99 620.10 132.84 C 624.69 137.51 626.52 144.61 624.84 150.93 C 623.71 156.49 619.69 161.02 614.99 163.97 C 607.65 168.63 598.58 166.17 590.41 166.72 C 590.16 175.73 590.36 184.74 590.30 193.76 C 586.79 193.80 583.28 193.79 579.78 193.74 C 579.76 170.97 579.82 148.20 579.75 125.44 M 590.35 157.40 C 595.56 157.23 600.79 157.64 605.99 157.20 C 613.92 155.46 617.18 144.42 611.27 138.76 C 605.63 133.53 597.24 136.34 590.35 135.60 C 590.27 142.86 590.27 150.13 590.35 157.40 Z" />
<path fill="#FF4655" opacity="1.00" d=" M 632.16 125.32 C 635.66 125.33 639.17 125.33 642.69 125.34 C 642.70 148.15 642.68 170.96 642.70 193.78 C 639.11 193.79 635.53 193.79 631.95 193.76 C 631.95 170.95 631.61 148.12 632.16 125.32 Z" />
<path fill="#FF4655" opacity="1.00" d=" M 138.22 128.20 C 139.23 127.19 140.78 125.22 142.25 126.70 C 148.79 133.18 155.33 139.67 161.80 146.21 C 160.86 147.90 158.72 148.37 157.18 149.38 C 130.65 163.79 104.18 178.30 77.67 192.76 C 75.82 193.74 73.87 194.51 71.91 195.23 C 93.71 172.60 116.29 150.71 138.22 128.20 Z" />
<path fill="#FF4655" opacity="1.00" d=" M 452.25 143.42 C 459.45 140.80 468.00 142.51 473.49 147.93 C 473.55 146.47 473.61 145.00 473.68 143.55 C 477.31 143.54 480.94 143.54 484.57 143.54 C 484.65 159.70 484.61 175.85 484.60 192.01 C 484.70 199.94 481.75 208.40 475.06 213.09 C 462.91 222.64 441.77 217.17 437.20 201.99 C 440.51 200.84 443.77 199.54 447.03 198.23 C 449.06 201.08 450.97 204.29 454.15 206.00 C 459.47 208.82 466.92 207.69 470.52 202.63 C 473.74 198.67 473.71 193.36 473.61 188.54 C 470.69 191.99 466.53 194.34 461.94 194.47 C 452.08 195.46 442.44 189.45 437.92 180.84 C 434.81 175.20 434.89 168.43 435.79 162.24 C 437.69 153.80 443.94 146.20 452.25 143.42 M 457.64 153.05 C 452.63 153.93 449.04 158.23 447.36 162.79 C 444.45 170.54 448.52 180.55 456.48 183.34 C 460.71 184.15 465.78 184.24 469.09 181.02 C 475.81 175.25 476.31 164.05 470.57 157.44 C 467.68 153.51 462.27 152.06 457.64 153.05 Z" />
<path fill="#FF4655" opacity="1.00" d=" M 515.38 149.44 C 523.43 139.98 539.75 139.68 548.18 148.76 C 551.75 152.24 553.50 156.98 555.56 161.40 C 544.26 166.83 532.40 171.07 521.15 176.59 C 523.85 181.06 528.52 184.65 534.03 183.77 C 539.22 184.45 542.78 180.30 546.22 177.32 C 549.43 178.40 552.13 180.95 554.86 182.99 C 546.88 196.86 524.94 198.08 514.62 186.31 C 505.69 176.17 505.88 159.15 515.38 149.44 M 519.41 167.66 C 526.87 164.33 534.34 160.96 541.94 157.95 C 541.02 154.13 536.63 152.36 533.01 152.55 C 525.14 152.01 518.69 160.18 519.41 167.66 Z" />
<path fill="#FF4655" opacity="1.00" d=" M 339.52 143.86 C 346.85 141.64 355.32 141.88 362.02 145.87 C 372.60 152.49 377.51 166.89 372.56 178.49 C 369.34 185.84 362.93 192.17 354.93 193.91 C 346.91 195.57 337.75 194.19 331.74 188.27 C 325.26 182.64 321.77 173.77 322.92 165.24 C 324.24 155.94 330.49 147.04 339.52 143.86 M 345.65 153.05 C 340.73 153.94 336.92 157.96 335.40 162.59 C 332.44 170.40 336.18 180.60 344.39 183.35 C 348.89 184.24 354.27 184.16 357.62 180.52 C 364.99 174.12 364.26 161.19 356.74 155.22 C 353.59 152.96 349.42 152.23 345.65 153.05 Z" />
<path fill="#FF4655" opacity="1.00" d=" M 396.36 143.61 C 403.29 141.77 411.11 141.97 417.50 145.50 C 423.43 148.85 427.71 154.70 429.71 161.14 C 432.30 170.36 429.69 180.98 422.57 187.52 C 413.34 196.92 396.57 196.92 387.11 187.87 C 380.17 181.50 377.00 171.21 379.43 162.08 C 381.60 153.68 387.87 146.10 396.36 143.61 M 401.63 153.10 C 390.42 155.32 386.67 170.88 394.04 178.97 C 398.92 185.06 409.56 185.78 414.68 179.65 C 420.05 174.17 420.62 165.00 416.21 158.78 C 413.34 153.86 407.02 151.77 401.63 153.10 Z" />
<path fill="#FF4655" opacity="1.00" d=" M 662.27 146.17 C 670.09 144.39 679.31 144.80 685.59 150.39 C 690.41 155.20 691.96 162.36 691.68 168.98 C 691.64 177.25 691.67 185.51 691.66 193.77 C 688.18 193.78 684.70 193.78 681.22 193.78 C 681.22 192.82 681.21 190.89 681.21 189.92 C 673.95 197.26 660.96 197.37 653.30 190.65 C 649.36 185.99 647.27 178.88 650.07 173.13 C 652.35 168.38 656.79 164.64 661.97 163.50 C 668.52 161.83 675.45 162.45 681.79 164.69 C 681.23 158.92 675.80 154.28 669.98 155.14 C 665.61 154.61 661.72 157.19 659.86 161.03 C 656.54 160.21 653.36 158.94 650.31 157.41 C 652.47 152.14 656.57 147.58 662.27 146.17 M 664.42 172.73 C 660.34 174.33 657.84 180.19 661.51 183.46 C 667.74 189.31 678.74 184.69 680.62 176.88 C 680.81 175.42 681.38 172.99 679.30 172.67 C 674.58 171.01 669.07 170.71 664.42 172.73 Z" />
<path fill="#FF4655" opacity="1.00" d=" M 695.86 146.80 C 699.30 146.77 702.75 146.77 706.20 146.77 C 710.61 156.79 715.03 166.82 719.15 176.97 C 723.84 167.00 727.78 156.69 732.48 146.73 C 735.97 146.78 739.46 146.78 742.96 146.80 C 733.66 169.43 724.07 191.95 714.38 214.42 C 710.88 214.37 707.37 214.38 703.88 214.36 C 706.80 206.12 710.71 198.25 713.69 190.04 C 713.55 187.44 711.86 185.20 711.01 182.78 C 706.02 170.77 700.52 158.95 695.86 146.80 Z" />
</g>
</svg>
